<?xml version="1.0" encoding="UTF-8"?>
<svg width="34px" height="31px" viewBox="0 0 34 31" version="1.1" xmlns="http://www.w3.org/2000/svg" xmlns:xlink="http://www.w3.org/1999/xlink">
    <!-- Generator: Sketch 43.2 (39069) - http://www.bohemiancoding.com/sketch -->
    <title>ショップアイコン4</title>
    <desc>Created with Sketch.</desc>
    <defs></defs>
    <g id="Page-1" stroke="none" stroke-width="1" fill="none" fill-rule="evenodd">
        <g id="shop" transform="translate(-149.000000, -424.000000)" fill-rule="nonzero" fill="#E83828">
            <g id="Group" transform="translate(140.000000, 424.000000)">
                <g id="ショップアイコン4" transform="translate(9.000000, 0.000000)">
                    <path d="M9.77792187,12.3073312 C11.1894531,12.3073312 12.3335664,11.1655641 12.3335664,9.75811111 L13.266707,0.00476923077 L9.17814062,0.00476923077 L7.22221094,9.75811111 C7.22227734,11.1655641 8.36639062,12.3073312 9.77792187,12.3073312 Z" id="Shape"></path>
                    <path d="M17.0002656,12.3073312 C18.4112656,12.3073312 19.5553789,11.1655641 19.5553789,9.75811111 L19.0447812,0.00476923077 L14.95575,0.00476923077 L14.4446211,9.75811111 C14.4445547,11.1655641 15.5887344,12.3073312 17.0002656,12.3073312 Z" id="Shape"></path>
                    <path d="M24.222543,12.3073312 C25.6336094,12.3073312 26.7777227,11.1655641 26.7777227,9.75811111 L24.8222578,0.00470299145 L20.7337578,0.00470299145 L21.6668984,9.75804487 C21.6668984,11.1655641 22.8110117,12.3073312 24.222543,12.3073312 Z" id="Shape"></path>
                    <path d="M30.5998672,0.00470299145 L26.5113008,0.00470299145 L28.8891758,9.75804487 C28.8891758,10.9495577 29.7120156,11.9420876 30.8199375,12.2213526 L30.8199375,28.8624573 L26.9685742,28.8624573 L26.9685742,17.6027009 L17.2535391,17.6027009 L17.2535391,28.8624573 L3.18059375,28.8624573 L3.18059375,12.2214188 C4.28791797,11.9421538 5.11128906,10.9495577 5.11128906,9.75811111 L7.48869922,0.00476923077 L3.40013281,0.00476923077 L0,9.75811111 C0,10.5984893 0.412914062,11.3379188 1.04244531,11.8025214 L1.04244531,30.9953632 L32.9580859,30.9953632 L32.9580859,11.8025214 C33.5870195,11.3379188 34,10.5984893 34,9.75811111 L30.5998672,0.00470299145 Z M25.3651289,28.8624573 L18.856918,28.8624573 L18.856918,19.2025128 L25.3651289,19.2025128 L25.3651289,28.8624573 L25.3651289,28.8624573 Z" id="Shape"></path>
                    <rect id="Rectangle-path" x="7.26510937" y="16.8471752" width="5.68284766" height="5.66856197"></rect>
                </g>
            </g>
        </g>
    </g>
</svg>