<?xml version="1.0" encoding="UTF-8"?>
<svg width="232px" height="35px" viewBox="0 0 232 35" version="1.1" xmlns="http://www.w3.org/2000/svg" xmlns:xlink="http://www.w3.org/1999/xlink">
    <!-- Generator: Sketch 43.2 (39069) - http://www.bohemiancoding.com/sketch -->
    <title>Group</title>
    <desc>Created with Sketch.</desc>
    <defs>
        <polygon id="path-1" points="18.4186 12.419129 18.4186 0.471145161 0.3256 0.471145161 0.3256 12.419129"></polygon>
        <polygon id="path-3" points="0.514243077 0.146774194 9.12101231 0.146774194 9.12101231 8.68276613 0.514243077 8.68276613 0.514243077 0.146774194"></polygon>
        <polygon id="path-5" points="0 18.3333333 182.412736 18.3333333 182.412736 1.03166667 0 1.03166667"></polygon>
    </defs>
    <g id="Symbols" stroke="none" stroke-width="1" fill="none" fill-rule="evenodd">
        <g id="parts/header" transform="translate(-20.000000, -19.000000)">
            <g id="Group" transform="translate(20.000000, 19.000000)">
                <g id="Page-1">
                    <g>
                        <polygon id="Fill-1" fill="#6FBA2C" points="18.5409277 34.8529435 28.0095123 22.9207661 18.5409277 10.9564113"></polygon>
                        <g id="Group-13" transform="translate(0.000000, 0.417460)">
                            <g id="Group-4" transform="translate(18.215385, 22.016129)">
                                <mask id="mask-2" fill="white">
                                    <use xlink:href="#path-1"></use>
                                </mask>
                                <g id="Clip-3"></g>
                                <path d="M9.80670769,0.471145161 L0.3256,12.419129 L17.5954923,12.419129 C18.2814154,12.419129 18.6656462,11.6350161 18.2415692,11.1004194 L9.80670769,0.471145161 Z" id="Fill-2" fill="#FFE200" mask="url(#mask-2)"></path>
                            </g>
                            <path d="M18.5408138,10.5392903 L28.0219215,22.4872742 L36.2268138,12.1481613 C36.7442446,11.4955806 36.2757677,10.5392903 35.4395677,10.5392903 L18.5408138,10.5392903 Z" id="Fill-5" fill="#00A0E9"></path>
                            <g id="Group-9" transform="translate(0.000000, 10.161290)" fill="#E83828">
                                <path d="M15.8172723,0.378 L0.982549231,0.378 C0.19758,0.378 -0.269189231,1.24679032 0.16798,1.89372581 L15.0032723,23.7946935 C15.5434723,24.5929194 16.7980569,24.213 16.7980569,23.2527581 L16.7980569,1.35066129 C16.7980569,0.813241935 16.35918,0.378 15.8172723,0.378" id="Fill-7"></path>
                            </g>
                            <g id="Group-12" transform="translate(12.523077, 0.000000)">
                                <mask id="mask-4" fill="white">
                                    <use xlink:href="#path-3"></use>
                                </mask>
                                <g id="Clip-11"></g>
                                <path d="M9.12101231,4.41502419 C9.12101231,2.05760484 7.19416615,0.146717742 4.81762769,0.146717742 C2.44108923,0.146717742 0.514243077,2.05760484 0.514243077,4.41502419 C0.514243077,6.77187903 2.44108923,8.68276613 4.81762769,8.68276613 C7.19416615,8.68276613 9.12101231,6.77187903 9.12101231,4.41502419" id="Fill-10" fill="#E83828" mask="url(#mask-4)"></path>
                            </g>
                        </g>
                    </g>
                </g>
                <g id="Page-1" transform="translate(49.000000, 9.000000)">
                    <g>
                        <polygon id="Fill-1" fill="#221814" points="0 1.7865 0 5.88316667 5.02750909 5.88316667 5.02750909 18.6531667 9.69400909 18.6531667 9.69400909 5.88316667 14.7464727 5.88316667 14.7464727 1.7865"></polygon>
                        <polygon id="Fill-2" fill="#221814" points="16.9108636 18.654 21.5773636 18.654 21.5773636 1.78733333 16.9108636 1.78733333"></polygon>
                        <polygon id="Fill-3" fill="#221814" points="24.6570873 1.7865 24.6570873 18.6531667 38.3205327 18.6531667 38.3205327 14.6798333 29.2770055 14.6798333 29.2770055 12.0048333 37.3589509 12.0048333 37.3589509 8.31816667 29.2770055 8.31816667 29.2770055 5.73816667 38.2007509 5.73816667 38.2007509 1.7865"></polygon>
                        <g id="Group-19" transform="translate(0.000000, 0.635667)">
                            <path d="M55.4960809,11.152 L51.9358991,11.152 L51.9358991,14.2586667 L55.5443264,14.2586667 C56.9866991,14.2586667 57.7802536,13.7053333 57.7802536,12.717 L57.7802536,12.6686667 C57.7802536,11.752 57.0598991,11.152 55.4960809,11.152 Z M57.1081445,6.357 C57.1081445,5.417 56.3628355,4.91033333 54.9903355,4.91033333 L51.9358991,4.91033333 L51.9358991,7.87366667 L54.8705536,7.87366667 C56.2896355,7.87366667 57.1081445,7.39033333 57.1081445,6.40366667 L57.1081445,6.357 Z M47.3891809,1.152 L56.0251173,1.152 C58.1412627,1.152 59.6335445,1.68033333 60.6200809,2.64533333 C61.2938536,3.34366667 61.7014445,4.23533333 61.7014445,5.39366667 L61.7014445,5.43866667 C61.7014445,7.39033333 60.5951264,8.54866667 59.1045082,9.19866667 C61.1491173,9.87366667 62.4467536,11.032 62.4467536,13.3203333 L62.4467536,13.3703333 C62.4467536,16.2603333 60.0910445,18.0203333 56.0733627,18.0203333 L47.3891809,18.0203333 L47.3891809,1.152 Z" id="Fill-4" fill="#221814"></path>
                            <path d="M72.3591982,9.24766667 C73.9213527,9.24766667 74.8596436,8.476 74.8596436,7.24766667 L74.8596436,7.19933333 C74.8596436,5.84933333 73.8747709,5.176 72.3342436,5.176 L69.2565164,5.176 L69.2565164,9.24766667 L72.3591982,9.24766667 Z M64.5900164,1.151 L72.5505164,1.151 C75.1241618,1.151 76.9059164,1.82433333 78.0355255,2.95933333 C79.0220618,3.946 79.5278073,5.22266667 79.5278073,6.886 L79.5278073,6.93433333 C79.5278073,9.536 78.1569709,11.2476667 76.0624527,12.1393333 L80.0801345,18.021 L74.7165709,18.021 L71.3244164,12.911 L69.2565164,12.911 L69.2565164,18.021 L64.5900164,18.021 L64.5900164,1.151 Z" id="Fill-6" fill="#221814"></path>
                            <polygon id="Fill-8" fill="#221814" points="81.88518 1.15033333 95.42718 1.15033333 95.42718 5.102 86.5034345 5.102 86.5034345 7.682 94.58538 7.682 94.58538 11.3686667 86.5034345 11.3686667 86.5034345 14.0436667 95.5486255 14.0436667 95.5486255 18.0186667 81.88518 18.0186667"></polygon>
                            <path d="M107.864858,11.344 L105.988276,6.57233333 L104.088404,11.344 L107.864858,11.344 Z M103.77564,1.03233333 L108.274113,1.03233333 L115.441058,18.019 L110.438504,18.019 L109.235695,14.9856667 L102.717567,14.9856667 L101.514758,18.019 L96.6319855,18.019 L103.77564,1.03233333 Z" id="Fill-10" fill="#221814"></path>
                            <polygon id="Fill-12" fill="#221814" points="117.079075 1.15033333 121.745575 1.15033333 121.745575 7.99366667 127.566638 1.15033333 133.074938 1.15033333 126.699884 8.38033333 133.291211 18.0186667 127.711375 18.0186667 123.452465 11.7536667 121.745575 13.6336667 121.745575 18.0186667 117.079075 18.0186667"></polygon>
                            <mask id="mask-6" fill="white">
                                <use xlink:href="#path-5"></use>
                            </mask>
                            <g id="Clip-15"></g>
                            <polygon id="Fill-14" fill="#221814" mask="url(#mask-6)" points="141.4224 18.0183333 146.0889 18.0183333 146.0889 1.15 141.4224 1.15"></polygon>
                            <path d="M148.904272,4.98166667 L153.474281,4.98166667 L153.474281,6.815 C154.316081,5.73 155.51889,4.69333333 157.372181,4.69333333 C160.137145,4.69333333 161.797454,6.52333333 161.797454,9.48833333 L161.797454,18.0183333 L157.250735,18.0183333 L157.250735,10.9583333 C157.250735,9.51333333 156.505426,8.74166667 155.399108,8.74166667 C154.29279,8.74166667 153.474281,9.51333333 153.474281,10.9583333 L153.474281,18.0183333 L148.904272,18.0183333 L148.904272,4.98166667 Z" id="Fill-16" fill="#221814" mask="url(#mask-6)"></path>
                            <path d="M163.650412,11.5621667 L163.650412,11.5138333 C163.650412,7.82716667 166.488575,4.71883333 170.601085,4.71883333 C173.271221,4.71883333 175.051312,5.87383333 176.15763,7.6105 L173.079903,9.92383333 C172.429421,9.0805 171.732357,8.54883333 170.650994,8.54883333 C169.158712,8.54883333 168.075685,9.87383333 168.075685,11.4638333 L168.075685,11.5138333 C168.075685,13.1988333 169.133757,14.4788333 170.674285,14.4788333 C171.780603,14.4788333 172.477666,13.9705 173.176394,13.1271667 L176.23083,15.3455 C175.028021,17.1288333 173.296175,18.3321667 170.458012,18.3321667 C166.511866,18.3321667 163.650412,15.2488333 163.650412,11.5621667" id="Fill-17" fill="#221814" mask="url(#mask-6)"></path>
                            <polygon id="Fill-18" fill="#221814" mask="url(#mask-6)" points="177.6747 18.0183333 182.412736 18.0183333 182.412736 13.3216667 177.6747 13.3216667"></polygon>
                        </g>
                    </g>
                </g>
            </g>
        </g>
    </g>
</svg>